# Blender v2.73 (sub 0) OBJ File: ''
# www.blender.org
mtllib oxido-orig.mtl
o Plane
v 16.311909 -1.017614 17.580509
v 16.311909 -1.017609 -15.114831
v -16.383430 -1.017609 -15.114831
v -16.383430 -1.017614 17.580509
vt 0.000100 0.000100
vt 0.999900 0.000100
vt 0.999900 0.999900
vt 0.000100 0.999900
vn 0.000000 1.000000 0.000000
usemtl Material2
s off
f 1/1/1 2/2/1 3/3/1
f 4/4/1 1/1/1 3/3/1
o Cube.001
v 1.000000 -1.000000 -1.000000
v 1.000000 -1.000000 1.000000
v -1.000000 -1.000000 1.000000
v -1.000000 1.000000 -1.000000
v -1.000000 1.000000 1.000000
v 0.999999 1.000000 1.000001
v 1.000000 1.000000 -0.999999
v -1.000000 -1.000000 -1.000000
vt 0.000000 0.000000
vt 1.000000 0.000000
vt 1.000000 1.000000
vn 0.000000 -1.000000 -0.000000
vn -0.000000 1.000000 0.000000
vn 1.000000 0.000000 0.000000
vn -0.000000 -0.000000 1.000000
vn -1.000000 0.000000 0.000000
vn 0.000000 0.000000 -1.000000
usemtl Material.001
s off
f 5/5/2 6/6/2 7/7/2
f 8/5/3 9/6/3 10/7/3
f 11/5/4 10/6/4 6/7/4
f 10/5/5 9/6/5 7/7/5
f 7/5/6 9/6/6 8/7/6
f 5/5/7 12/6/7 8/7/7
f 12/5/2 5/6/2 7/7/2
f 11/5/3 8/6/3 10/7/3
f 5/5/4 11/6/4 6/7/4
f 6/5/5 10/6/5 7/7/5
f 12/5/6 7/6/6 8/7/6
f 11/5/7 5/6/7 8/7/7
